<svg 
 xmlns="http://www.w3.org/2000/svg"
 xmlns:xlink="http://www.w3.org/1999/xlink"
 width="251px" height="309px">
<path fill-rule="evenodd"  fill="rgb(131, 94, 63)"
 d="M250.945,255.741 C250.440,274.161 243.914,283.461 231.364,283.641 C231.219,283.678 231.074,283.695 230.931,283.695 C218.993,283.695 213.025,274.990 213.025,257.580 L213.025,256.066 C213.385,237.466 219.913,228.166 232.608,228.166 C244.868,228.166 251.000,236.673 251.000,253.687 C251.000,254.372 250.982,255.056 250.945,255.741 ZM238.991,252.226 C238.702,246.423 237.836,242.801 236.395,241.358 C235.492,240.494 234.411,240.062 233.149,240.062 C232.427,240.062 231.651,240.206 230.823,240.494 C228.551,241.287 227.000,244.225 226.170,249.307 C225.665,252.335 225.412,255.381 225.412,258.445 C225.412,260.500 225.522,262.573 225.737,264.663 C226.315,269.854 228.172,272.539 231.309,272.719 L231.687,272.719 C234.609,272.719 236.610,270.792 237.692,266.934 C238.593,263.726 239.045,259.924 239.045,255.526 C239.045,254.443 239.026,253.345 238.991,252.226 ZM217.816,145.847 C219.488,148.447 220.383,151.453 220.383,154.629 C220.383,159.695 218.124,164.295 214.145,167.465 L214.145,180.507 C214.145,196.443 201.175,209.409 185.230,209.409 L49.442,209.409 C33.497,209.409 20.527,196.443 20.527,180.507 L20.527,165.590 C17.808,162.598 16.302,158.769 16.302,154.631 C16.302,151.997 16.937,149.440 18.133,147.140 C14.034,143.320 11.464,137.881 11.464,131.852 L11.464,131.012 C11.464,121.910 17.315,114.153 25.452,111.287 L25.452,100.055 C24.860,99.746 24.276,99.409 23.714,99.031 C19.003,95.870 16.302,90.874 16.302,85.327 C16.302,82.566 16.973,79.937 18.260,77.576 C16.551,74.775 15.919,71.439 16.533,68.162 C20.074,49.231 32.236,31.901 50.777,19.364 C69.243,6.877 92.881,-0.000 117.336,-0.000 C141.791,-0.000 165.429,6.877 183.896,19.364 C202.436,31.902 214.598,49.231 218.139,68.162 C218.628,70.775 218.325,73.426 217.317,75.815 C219.310,78.576 220.383,81.858 220.383,85.327 C220.383,90.874 217.682,95.866 212.973,99.030 C211.788,99.824 210.528,100.460 209.220,100.943 L209.220,111.287 C217.357,114.153 223.208,121.910 223.208,131.012 L223.208,131.852 C223.208,137.231 221.165,142.139 217.816,145.847 ZM28.798,180.507 C28.798,191.884 38.060,201.142 49.442,201.142 L185.230,201.142 C196.613,201.142 205.874,191.884 205.874,180.507 L205.873,180.507 L205.873,171.138 C203.351,171.548 200.697,171.402 198.238,170.709 C197.105,170.389 196.036,169.892 194.903,169.577 C193.713,169.246 192.477,169.109 191.244,169.109 C186.482,169.109 184.274,170.665 181.479,172.638 C178.295,174.886 174.332,177.683 166.944,177.683 C159.557,177.683 155.592,174.886 152.408,172.638 C149.615,170.665 147.407,169.109 142.644,169.109 C137.883,169.109 135.675,170.665 132.880,172.638 C129.696,174.886 125.733,177.683 118.346,177.683 C110.957,177.683 106.994,174.886 103.810,172.638 C101.015,170.665 98.806,169.109 94.044,169.109 C89.283,169.109 87.075,170.665 84.280,172.638 C81.096,174.886 77.133,177.683 69.746,177.683 C62.356,177.683 58.394,174.886 55.208,172.638 C52.413,170.665 50.206,169.109 45.442,169.109 C43.612,169.109 42.000,169.402 40.513,170.010 C40.200,170.139 39.882,170.253 39.564,170.365 C39.494,170.388 39.423,170.412 39.352,170.436 C35.859,171.597 32.194,171.665 28.798,170.702 L28.798,180.507 ZM24.667,155.855 C25.061,158.437 26.740,160.610 28.994,161.878 C31.541,163.312 34.688,163.457 37.388,162.356 C39.885,161.335 42.520,160.840 45.442,160.840 C52.832,160.840 56.794,163.636 59.980,165.884 C62.775,167.856 64.982,169.415 69.746,169.415 C74.508,169.415 76.715,167.857 79.510,165.884 C82.695,163.636 86.658,160.840 94.046,160.840 C101.433,160.840 105.396,163.636 108.580,165.884 C111.377,167.857 113.583,169.415 118.346,169.415 C123.108,169.415 125.315,167.857 128.110,165.884 C131.296,163.636 135.258,160.840 142.646,160.840 C150.033,160.840 153.996,163.636 157.180,165.884 C159.975,167.857 162.183,169.415 166.944,169.415 C171.707,169.415 173.913,167.857 176.710,165.884 C179.894,163.636 183.857,160.840 191.244,160.840 C194.167,160.840 196.802,161.335 199.296,162.354 C201.322,163.181 203.598,163.317 205.700,162.706 C209.368,161.644 212.178,158.380 212.108,154.481 C212.089,153.397 211.850,152.317 211.402,151.330 C211.320,151.146 211.260,150.854 211.031,150.838 C210.864,150.827 210.661,150.988 210.520,151.061 C210.086,151.284 209.614,151.445 209.152,151.605 C206.948,152.367 204.619,152.763 202.286,152.763 L129.814,152.763 L122.061,160.442 C120.470,162.020 117.813,162.017 116.226,160.429 L108.556,152.763 L32.384,152.763 C29.963,152.763 27.533,152.337 25.257,151.511 C25.053,151.437 24.674,153.320 24.645,153.543 C24.543,154.310 24.549,155.091 24.667,155.855 ZM75.847,110.103 C75.850,110.103 75.855,110.103 75.860,110.103 C75.863,110.103 75.868,110.103 75.872,110.103 L162.825,110.103 L162.826,110.103 C162.828,110.103 162.828,110.103 162.830,110.103 L200.947,110.103 L200.947,101.934 C199.304,101.742 197.705,101.308 196.168,100.704 C194.593,100.086 192.934,99.805 191.244,99.805 C186.482,99.805 184.275,101.363 181.479,103.334 C178.295,105.582 174.332,108.379 166.944,108.379 C159.557,108.379 155.594,105.582 152.410,103.334 C149.615,101.363 147.407,99.805 142.644,99.805 C137.883,99.805 135.675,101.363 132.880,103.334 C129.696,105.582 125.733,108.379 118.346,108.379 C110.958,108.379 106.994,105.582 103.810,103.334 C101.015,101.363 98.808,99.805 94.046,99.805 C89.283,99.805 87.075,101.363 84.280,103.334 C81.096,105.582 77.133,108.379 69.746,108.379 C62.356,108.379 58.394,105.582 55.209,103.334 C52.764,101.610 50.767,100.200 47.116,99.876 C44.982,99.685 42.785,99.837 40.770,100.605 C38.751,101.374 36.715,101.922 34.546,102.026 C34.271,102.039 33.998,102.047 33.724,102.049 L33.724,110.103 L75.847,110.103 ZM56.384,118.369 L70.164,132.143 L79.044,123.265 L74.802,119.026 L74.146,118.369 L56.384,118.369 ZM85.844,118.369 L87.818,120.342 C87.820,120.344 87.821,120.345 87.821,120.347 L113.194,145.706 L119.150,151.661 L125.108,145.706 C125.111,145.703 125.116,145.700 125.119,145.697 C125.121,145.694 125.123,145.692 125.124,145.690 L152.764,118.369 L85.844,118.369 ZM19.735,131.012 L19.735,131.852 C19.735,136.551 22.313,140.656 26.129,142.834 C28.026,143.917 30.199,144.495 32.384,144.495 L100.285,144.495 L84.894,129.112 L73.088,140.912 C72.313,141.687 71.261,142.122 70.164,142.122 C69.067,142.122 68.015,141.687 67.240,140.912 L44.688,118.369 L32.384,118.369 C25.410,118.369 19.735,124.042 19.735,131.012 ZM210.010,69.680 C206.876,52.939 195.957,37.500 179.261,26.210 C162.148,14.639 140.156,8.267 117.336,8.267 C94.516,8.267 72.524,14.639 55.411,26.210 C38.715,37.500 27.795,52.939 24.662,69.680 C24.082,72.785 26.559,75.752 29.717,75.752 L204.955,75.752 C208.108,75.752 210.590,72.785 210.010,69.680 ZM212.112,85.325 C212.112,84.294 211.913,83.265 211.523,82.309 C209.533,83.428 207.238,84.019 204.955,84.019 L29.717,84.019 C28.071,84.019 26.415,83.714 24.879,83.120 C24.677,83.827 24.574,84.566 24.575,85.327 C24.575,88.074 25.942,90.567 28.326,92.167 C30.982,93.951 34.436,94.256 37.388,93.052 C39.887,92.033 42.522,91.537 45.444,91.537 C52.833,91.537 56.796,94.332 59.980,96.580 C62.776,98.553 64.983,100.111 69.747,100.111 C74.508,100.111 76.716,98.553 79.511,96.580 C82.695,94.334 86.660,91.537 94.047,91.537 C101.435,91.537 105.398,94.332 108.582,96.580 C111.377,98.553 113.585,100.111 118.347,100.111 C123.110,100.111 125.317,98.553 128.111,96.582 C131.296,94.334 135.258,91.537 142.646,91.537 C150.035,91.537 153.998,94.332 157.182,96.582 C159.977,98.553 162.183,100.111 166.946,100.111 C171.708,100.111 173.915,98.553 176.710,96.580 C179.894,94.334 183.858,91.537 191.246,91.537 C192.818,91.537 194.391,91.683 195.929,92.012 C197.351,92.315 198.651,92.877 200.029,93.313 C202.818,94.195 205.923,93.803 208.360,92.165 C210.745,90.565 212.112,88.072 212.112,85.325 ZM214.937,131.012 C214.937,124.042 209.262,118.369 202.286,118.369 L164.531,118.369 L138.158,144.495 L202.288,144.495 C204.879,144.495 207.440,143.681 209.558,142.190 C212.808,139.898 214.937,136.120 214.937,131.852 L214.937,131.012 ZM196.259,66.746 C195.734,66.967 195.189,67.072 194.653,67.072 C193.039,67.072 191.506,66.123 190.840,64.542 C186.963,55.353 179.674,46.953 169.760,40.249 C159.508,33.317 146.911,28.540 133.329,26.438 C131.071,26.087 129.525,23.975 129.875,21.721 C130.224,19.464 132.341,17.919 134.594,18.267 C149.376,20.555 163.138,25.789 174.395,33.401 C185.639,41.004 193.962,50.662 198.462,61.331 C199.349,63.434 198.364,65.858 196.259,66.746 ZM131.299,59.955 C130.783,61.552 129.247,62.740 127.567,62.821 C125.867,62.902 124.202,61.846 123.548,60.274 C122.838,58.545 123.439,56.406 124.971,55.324 C126.412,54.308 128.475,54.344 129.879,55.411 C131.236,56.443 131.820,58.335 131.299,59.955 ZM117.898,22.921 C116.530,24.042 114.461,24.138 112.989,23.158 C111.436,22.115 110.761,20.006 111.422,18.256 C112.013,16.693 113.601,15.597 115.271,15.587 C116.960,15.579 118.553,16.698 119.153,18.269 C119.771,19.887 119.236,21.826 117.898,22.921 ZM112.645,41.736 C112.133,43.334 110.593,44.516 108.915,44.602 C107.213,44.689 105.546,43.623 104.892,42.054 C104.170,40.324 104.793,38.185 106.320,37.103 C107.760,36.081 109.826,36.121 111.226,37.192 C112.582,38.227 113.165,40.115 112.645,41.736 ZM98.317,59.994 C96.617,60.074 94.950,59.017 94.296,57.447 C93.587,55.718 94.188,53.578 95.719,52.496 C97.162,51.479 99.223,51.518 100.627,52.584 C101.986,53.614 102.567,55.505 102.050,57.126 C101.540,58.726 99.996,59.913 98.317,59.994 ZM76.967,44.600 C75.246,44.710 73.552,43.641 72.891,42.054 C72.174,40.334 72.784,38.211 74.290,37.121 C75.737,36.073 77.836,36.118 79.246,37.211 C80.581,38.248 81.162,40.121 80.644,41.729 C80.135,43.310 78.626,44.492 76.967,44.600 ZM56.985,59.994 C55.285,60.074 53.620,59.017 52.966,57.447 C52.256,55.718 52.856,53.578 54.389,52.496 C55.830,51.479 57.893,51.518 59.297,52.584 C60.654,53.615 61.232,55.506 60.715,57.126 C60.205,58.726 58.663,59.913 56.985,59.994 ZM14.389,207.187 C13.992,218.037 13.794,227.463 13.794,235.466 C15.705,232.041 18.139,230.041 21.097,229.464 C21.602,229.428 22.089,229.409 22.558,229.409 C34.314,229.409 40.318,237.898 40.571,254.876 L40.571,255.849 C40.571,272.863 34.314,281.370 21.800,281.370 C18.806,281.370 15.976,279.369 13.307,275.368 L12.875,283.641 L0.055,283.587 C0.234,270.394 0.325,257.706 0.325,245.522 C0.325,232.150 0.216,219.371 0.000,207.187 L14.389,207.187 ZM20.665,270.016 C20.989,270.016 21.313,269.998 21.638,269.962 C24.956,269.494 26.795,265.041 27.156,256.607 C27.191,255.741 27.210,254.912 27.210,254.120 C27.210,247.198 25.803,243.071 22.990,241.738 C22.125,241.341 21.277,241.143 20.448,241.143 C18.176,241.143 15.958,242.621 13.794,245.576 L13.524,264.285 C15.398,268.106 17.779,270.016 20.665,270.016 ZM58.531,226.327 C57.809,238.439 57.449,247.758 57.449,254.282 C57.449,257.562 57.539,260.121 57.719,261.959 C58.260,267.582 60.081,270.394 63.183,270.394 C66.284,270.394 68.232,268.934 69.025,266.014 L68.484,228.491 L81.196,228.382 C81.196,243.882 81.755,261.942 82.873,282.560 L72.920,283.695 L72.379,274.882 C70.865,279.568 66.789,281.930 60.154,281.965 C60.081,282.002 60.027,282.019 59.992,282.019 C53.427,282.019 49.082,279.064 46.955,273.152 C45.512,269.223 44.791,261.095 44.791,248.766 C44.791,242.423 44.989,234.943 45.386,226.327 L58.531,226.327 ZM97.858,236.114 C99.373,231.788 102.906,229.320 108.460,228.706 C109.290,228.635 110.083,228.599 110.841,228.599 C115.204,228.599 118.522,230.023 120.795,232.870 C123.426,236.258 124.761,241.648 124.797,249.036 L112.788,250.227 C112.824,249.613 112.842,249.019 112.842,248.441 C112.842,242.675 111.345,239.791 108.352,239.791 L108.136,239.791 C104.674,239.972 102.546,241.683 101.753,244.928 L102.294,284.128 L89.041,284.236 C89.041,267.655 88.481,249.036 87.364,228.382 L97.317,227.300 L97.858,236.114 ZM147.678,229.464 C151.140,229.464 154.242,231.483 156.984,235.519 L157.145,226.922 L168.992,227.463 C168.992,257.202 168.902,275.622 168.721,282.722 C168.541,289.823 167.468,295.518 165.503,299.808 C163.537,304.098 160.192,306.837 155.468,308.027 C152.980,308.675 150.510,309.000 148.058,309.000 C145.857,309.000 143.676,308.747 141.513,308.243 C136.895,307.162 133.722,305.124 131.991,302.133 C130.548,299.681 129.827,296.473 129.827,292.508 C129.827,291.716 129.863,290.868 129.936,289.967 L142.648,289.264 C142.611,289.697 142.594,290.129 142.594,290.562 C142.594,294.490 144.163,296.635 147.300,296.996 C147.805,297.068 148.274,297.104 148.707,297.104 C151.412,297.104 153.340,296.023 154.494,293.860 C155.504,291.913 156.010,288.273 156.010,282.938 C156.010,281.497 155.974,279.911 155.901,278.180 C153.881,282.217 150.130,284.417 144.649,284.777 C133.939,284.668 128.583,275.567 128.583,257.472 L128.583,257.093 C128.656,238.782 135.020,229.572 147.678,229.464 ZM145.569,271.800 C146.470,272.377 147.426,272.666 148.436,272.666 C150.672,272.666 153.124,271.296 155.793,268.556 L155.793,246.604 C154.025,243.035 151.790,241.251 149.085,241.251 C148.544,241.251 147.985,241.323 147.408,241.467 C143.910,242.297 141.981,247.109 141.620,255.904 C141.584,256.842 141.566,257.742 141.566,258.608 C141.566,265.780 142.900,270.177 145.569,271.800 ZM192.199,228.166 C204.459,228.166 210.591,236.673 210.591,253.687 C210.591,254.372 210.573,255.056 210.537,255.741 C210.031,274.161 203.505,283.461 190.955,283.641 C190.811,283.678 190.665,283.695 190.522,283.695 C178.584,283.695 172.616,274.990 172.616,257.580 L172.616,256.066 C172.976,237.466 179.505,228.166 192.199,228.166 ZM185.329,264.663 C185.906,269.854 187.763,272.539 190.900,272.719 L191.279,272.719 C194.200,272.719 196.202,270.792 197.283,266.934 C198.184,263.726 198.637,259.924 198.637,255.526 C198.637,254.443 198.617,253.345 198.582,252.226 C198.293,246.423 197.428,242.801 195.986,241.358 C195.084,240.494 194.002,240.062 192.740,240.062 C192.018,240.062 191.242,240.206 190.414,240.494 C188.142,241.287 186.591,244.225 185.762,249.307 C185.256,252.335 185.004,255.381 185.004,258.445 C185.004,260.500 185.113,262.573 185.329,264.663 Z"/>
</svg>