<svg 
 xmlns="http://www.w3.org/2000/svg"
 xmlns:xlink="http://www.w3.org/1999/xlink"
 width="116px" height="116px">
<path fill-rule="evenodd"  fill="rgb(113, 108, 83)"
 d="M58.000,116.000 C25.968,116.000 0.000,90.032 0.000,58.000 C0.000,25.968 25.968,0.000 58.000,0.000 C90.017,0.036 115.964,25.983 116.000,58.000 C116.000,90.032 90.032,116.000 58.000,116.000 ZM58.000,3.867 C28.103,3.867 3.867,28.103 3.867,58.000 C3.867,87.897 28.103,112.133 58.000,112.133 C87.883,112.099 112.099,87.883 112.133,58.000 C112.133,28.103 87.897,3.867 58.000,3.867 ZM85.295,85.390 C84.538,86.143 83.314,86.141 82.560,85.385 C81.806,84.628 81.809,83.404 82.565,82.650 C95.381,69.879 96.273,49.417 84.616,35.579 C83.928,34.763 84.032,33.543 84.848,32.855 C84.851,32.853 84.854,32.850 84.856,32.848 C85.674,32.162 86.894,32.269 87.580,33.087 C100.531,48.464 99.538,71.201 85.295,85.390 ZM77.641,56.695 L79.039,87.903 C79.198,89.595 78.636,91.276 77.492,92.533 C77.356,92.682 77.213,92.825 77.064,92.961 C74.312,95.477 70.040,95.286 67.524,92.533 C66.353,91.239 65.791,89.508 65.977,87.773 L67.367,56.699 C64.681,55.279 62.785,52.714 62.217,49.729 C61.593,46.184 61.812,42.541 62.857,39.096 L64.098,35.011 C64.985,32.400 67.035,30.350 69.645,29.463 C74.286,27.887 79.326,30.370 80.902,35.011 L82.143,39.096 C83.188,42.541 83.407,46.184 82.783,49.729 C82.215,52.711 80.323,55.274 77.641,56.695 ZM78.443,40.229 L77.202,36.142 C76.694,34.769 75.612,33.687 74.239,33.179 C71.642,32.219 68.759,33.545 67.798,36.142 L66.557,40.229 C65.690,43.089 65.508,46.113 66.025,49.056 C66.444,51.201 67.972,52.961 70.037,53.675 C70.821,53.970 71.326,54.735 71.288,55.572 L69.830,88.081 C69.732,88.760 69.940,89.449 70.398,89.960 C71.563,91.112 73.437,91.112 74.602,89.960 C75.038,89.487 75.249,88.849 75.182,88.208 L73.712,55.572 C73.674,54.735 74.179,53.970 74.963,53.675 C77.028,52.961 78.556,51.201 78.975,49.056 C79.491,46.113 79.309,43.089 78.443,40.229 ZM66.211,24.172 C59.407,22.541 52.271,22.978 45.718,25.429 C45.501,25.511 45.272,25.553 45.041,25.555 C44.237,25.554 43.516,25.055 43.233,24.302 C42.857,23.303 43.363,22.188 44.362,21.812 C51.640,19.090 59.564,18.603 67.120,20.414 C68.157,20.665 68.795,21.710 68.544,22.748 C68.294,23.786 67.249,24.423 66.211,24.172 ZM45.035,25.555 C45.037,25.555 45.039,25.555 45.041,25.555 C45.042,25.555 45.044,25.555 45.045,25.555 L45.035,25.555 ZM44.467,46.400 L44.467,30.933 C44.467,29.866 45.332,29.000 46.400,29.000 C47.468,29.000 48.333,29.866 48.333,30.933 L48.333,46.400 C48.333,47.468 47.468,48.333 46.400,48.333 C45.332,48.333 44.467,47.468 44.467,46.400 ZM41.561,90.033 C41.566,90.039 41.572,90.045 41.578,90.050 C42.646,91.109 44.369,91.101 45.428,90.033 C45.934,89.507 46.199,88.793 46.158,88.063 L44.467,54.230 C44.440,53.684 44.646,53.152 45.033,52.766 L50.267,47.533 L50.267,30.933 C50.267,29.866 51.132,29.000 52.200,29.000 C53.268,29.000 54.133,29.866 54.133,30.934 L54.133,48.334 C54.133,48.846 53.929,49.338 53.567,49.700 L48.374,54.895 L50.023,87.876 C50.033,88.088 50.033,88.300 50.023,88.511 C49.848,92.114 46.785,94.892 43.182,94.717 C39.580,94.541 36.801,91.478 36.977,87.876 L38.626,54.895 L33.433,49.700 C33.071,49.338 32.867,48.846 32.867,48.333 L32.867,30.933 C32.867,29.866 33.732,29.000 34.800,29.000 C35.868,29.000 36.733,29.866 36.733,30.933 L36.733,47.533 L41.969,52.766 C42.355,53.153 42.560,53.684 42.533,54.230 L40.830,88.063 C40.790,88.793 41.054,89.507 41.561,90.033 ZM40.600,48.333 C39.532,48.333 38.667,47.468 38.667,46.400 L38.667,30.933 C38.667,29.866 39.532,29.000 40.600,29.000 C41.668,29.000 42.533,29.866 42.533,30.933 L42.533,46.400 C42.533,47.468 41.668,48.333 40.600,48.333 ZM23.200,58.000 C23.178,67.209 26.831,76.047 33.348,82.553 C34.104,83.310 34.104,84.536 33.347,85.292 C32.591,86.048 31.364,86.047 30.609,85.291 C17.195,71.831 15.551,50.619 26.728,35.252 C26.739,35.237 26.750,35.222 26.762,35.206 C27.403,34.353 28.615,34.181 29.469,34.823 C30.322,35.464 30.494,36.676 29.853,37.530 C25.512,43.471 23.181,50.642 23.200,58.000 Z"/>
</svg>