<?xml version="1.0" standalone="no"?><svg xmlns="http://www.w3.org/2000/svg" viewBox="0 0 1440 320"><path fill="#ff5500" fill-opacity="0.15" d="M0,256L24,266.7C48,277,96,299,144,309.3C192,320,240,320,288,277.3C336,235,384,149,432,117.3C480,85,528,107,576,117.3C624,128,672,128,720,138.7C768,149,816,171,864,197.3C912,224,960,256,1008,245.3C1056,235,1104,181,1152,133.3C1200,85,1248,43,1296,58.7C1344,75,1392,149,1416,186.7L1440,224L1440,0L1416,0C1392,0,1344,0,1296,0C1248,0,1200,0,1152,0C1104,0,1056,0,1008,0C960,0,912,0,864,0C816,0,768,0,720,0C672,0,624,0,576,0C528,0,480,0,432,0C384,0,336,0,288,0C240,0,192,0,144,0C96,0,48,0,24,0L0,0Z"></path></svg>